<?xml version="1.0" standalone="no"?>
<!DOCTYPE svg PUBLIC "-//W3C//DTD SVG 20010904//EN"
 "http://www.w3.org/TR/2001/REC-SVG-20010904/DTD/svg10.dtd">
<svg version="1.0" xmlns="http://www.w3.org/2000/svg"
 width="256.000000pt" height="256.000000pt" viewBox="0 0 256.000000 256.000000"
 preserveAspectRatio="xMidYMid meet">
<metadata>
Created by potrace 1.11, written by Peter Selinger 2001-2013
</metadata>
<g transform="translate(0.000000,256.000000) scale(0.100000,-0.100000)"
fill="#000000" stroke="none">
<path d="M540 2385 l0 -177 58 4 57 3 0 55 1 55 52 3 c58 3 55 7 54 -81 l0
-38 57 3 56 3 3 173 2 173 -57 -3 -58 -3 -2 -35 c-1 -19 -2 -44 -2 -55 -1 -19
-6 -20 -53 -15 l-52 5 0 50 -1 50 -57 3 -58 3 0 -176z"/>
<path d="M929 2545 c-1 -8 -1 -24 -1 -35 0 -69 -1 -67 47 -65 54 2 56 -2 54
-116 0 -46 0 -91 0 -100 1 -13 13 -16 60 -16 l60 0 0 109 c-1 60 2 112 6 116
4 4 25 7 48 7 l42 0 3 58 3 57 -161 0 c-135 0 -160 -2 -161 -15z"/>
<path d="M1299 2543 c-1 -20 -1 -289 0 -315 1 -15 11 -18 56 -18 l55 0 1 58
c1 31 0 67 -1 80 -1 12 1 22 4 22 2 0 20 -25 39 -56 l35 -56 39 58 38 57 3
-82 3 -82 57 3 57 3 2 173 2 172 -64 0 -64 0 -31 -55 c-17 -30 -33 -55 -36
-55 -2 0 -20 25 -39 55 l-36 55 -59 0 c-50 0 -60 -3 -61 -17z"/>
<path d="M1744 2388 l1 -173 138 -1 137 -1 1 23 c1 13 1 33 1 44 0 51 2 50
-82 50 l-80 0 0 115 0 115 -59 0 -59 0 2 -172z"/>
<path d="M375 2021 c2 -20 7 -72 10 -116 3 -44 8 -96 10 -115 6 -47 14 -142
20 -215 2 -33 6 -82 9 -110 3 -27 8 -81 11 -120 3 -38 7 -88 10 -110 2 -22 7
-71 10 -110 10 -120 15 -178 20 -227 11 -111 15 -147 20 -213 7 -92 15 -190
20 -240 2 -22 7 -71 10 -110 12 -144 -3 -127 153 -170 75 -20 214 -59 307 -85
94 -27 198 -56 233 -65 l64 -16 366 101 c202 56 369 104 371 105 4 4 17 126
26 240 3 39 8 90 10 115 3 25 7 77 10 115 3 39 7 90 10 115 3 25 7 74 10 110
7 81 14 161 20 220 2 25 7 77 10 115 3 39 8 86 10 105 2 19 7 71 10 115 3 44
8 98 10 120 9 94 21 222 30 330 3 44 8 96 10 116 l4 36 -910 0 -910 0 6 -36z"/>
</g>
</svg>
