<svg id="Layer_2" height="512" viewBox="0 0 128 128" width="512" xmlns="http://www.w3.org/2000/svg" data-name="Layer 2">
    <circle cx="64" cy="64" fill="#fcd248" r="57.5"/>
    <g fill="#fa7300">
        <path d="m106.1 48.476a1.751 1.751 0 0 1 -1.621-1.089 43.76 43.76 0 0 0 -23.866-23.861 1.75 1.75 0 1 1 1.323-3.24 47.254 47.254 0 0 1 25.778 25.778 1.751 1.751 0 0 1 -1.619 2.412z"/>
        <path d="m100.537 50.753a1.751 1.751 0 0 1 -1.621-1.089 37.684 37.684 0 0 0 -20.58-20.58 1.75 1.75 0 1 1 1.323-3.24 41.178 41.178 0 0 1 22.5 22.5 1.75 1.75 0 0 1 -1.619 2.412z"/>
        <path d="m46.725 107.845a1.738 1.738 0 0 1 -.661-.131 47.254 47.254 0 0 1 -25.778-25.778 1.75 1.75 0 1 1 3.24-1.323 43.76 43.76 0 0 0 23.861 23.861 1.751 1.751 0 0 1 -.662 3.371z"/><path d="m49 102.287a1.735 1.735 0 0 1 -.661-.131 41.178 41.178 0 0 1 -22.5-22.5 1.75 1.75 0 1 1 3.24-1.323 37.684 37.684 0 0 0 20.58 20.58 1.75 1.75 0 0 1 -.659 3.374z"/><circle cx="64" cy="64" r="21.5"/>
    </g><circle cx="64" cy="64" fill="#fcd248" r="8.5"/>
</svg>